<mxfile host="app.diagrams.net" agent="Mozilla/5.0 (Windows NT 10.0; Win64; x64; rv:134.0) Gecko/20100101 Firefox/134.0" version="26.0.5">
  <diagram name="Page-1" id="FnGmgW-BA_g8rnHXzi0c">
    <mxGraphModel grid="1" page="1" gridSize="10" guides="1" tooltips="1" connect="1" arrows="1" fold="1" pageScale="1" pageWidth="827" pageHeight="1169" background="none" math="0" shadow="0">
      <root>
        <mxCell id="0" />
        <mxCell id="1" parent="0" />
        <mxCell id="OwloqUtJ-1rdB4F-nMjI-1" value="&lt;span style=&quot;color: rgb(15, 20, 26); font-family: &amp;quot;Amazon Ember&amp;quot;, Helvetica, Arial, sans-serif; font-size: 16px; background-color: rgb(255, 255, 255);&quot;&gt;eu-west-2&lt;/span&gt;" style="points=[[0,0],[0.25,0],[0.5,0],[0.75,0],[1,0],[1,0.25],[1,0.5],[1,0.75],[1,1],[0.75,1],[0.5,1],[0.25,1],[0,1],[0,0.75],[0,0.5],[0,0.25]];outlineConnect=0;gradientColor=none;html=1;whiteSpace=wrap;fontSize=12;fontStyle=0;container=1;pointerEvents=0;collapsible=0;recursiveResize=0;shape=mxgraph.aws4.group;grIcon=mxgraph.aws4.group_aws_cloud_alt;strokeColor=#232F3E;fillColor=none;verticalAlign=top;align=left;spacingLeft=30;fontColor=#232F3E;dashed=0;" vertex="1" parent="1">
          <mxGeometry x="-190" y="360" width="1350" height="790" as="geometry" />
        </mxCell>
        <mxCell id="OwloqUtJ-1rdB4F-nMjI-5" value="" style="endArrow=classic;html=1;rounded=0;" edge="1" parent="OwloqUtJ-1rdB4F-nMjI-1" source="OwloqUtJ-1rdB4F-nMjI-29" target="OwloqUtJ-1rdB4F-nMjI-7">
          <mxGeometry width="50" height="50" relative="1" as="geometry">
            <mxPoint x="-191" y="450" as="sourcePoint" />
            <mxPoint x="170" y="451.11423862121615" as="targetPoint" />
            <Array as="points" />
          </mxGeometry>
        </mxCell>
        <mxCell id="OwloqUtJ-1rdB4F-nMjI-7" value="" style="sketch=0;points=[[0,0,0],[0.25,0,0],[0.5,0,0],[0.75,0,0],[1,0,0],[0,1,0],[0.25,1,0],[0.5,1,0],[0.75,1,0],[1,1,0],[0,0.25,0],[0,0.5,0],[0,0.75,0],[1,0.25,0],[1,0.5,0],[1,0.75,0]];outlineConnect=0;fontColor=#232F3E;fillColor=light-dark(#ff0000, #ff7f93);strokeColor=#ffffff;dashed=0;verticalLabelPosition=bottom;verticalAlign=top;align=center;html=1;fontSize=12;fontStyle=0;aspect=fixed;shape=mxgraph.aws4.resourceIcon;resIcon=mxgraph.aws4.cognito;" vertex="1" parent="OwloqUtJ-1rdB4F-nMjI-1">
          <mxGeometry x="240" y="406" width="78" height="78" as="geometry" />
        </mxCell>
        <mxCell id="OwloqUtJ-1rdB4F-nMjI-8" value="" style="endArrow=classic;html=1;rounded=0;" edge="1" parent="OwloqUtJ-1rdB4F-nMjI-1" target="OwloqUtJ-1rdB4F-nMjI-6">
          <mxGeometry width="50" height="50" relative="1" as="geometry">
            <mxPoint x="317.99" y="445" as="sourcePoint" />
            <mxPoint x="419.99827256153117" y="445" as="targetPoint" />
            <Array as="points">
              <mxPoint x="369.99" y="445" />
            </Array>
          </mxGeometry>
        </mxCell>
        <mxCell id="OwloqUtJ-1rdB4F-nMjI-6" value="" style="sketch=0;outlineConnect=0;fontColor=#232F3E;gradientColor=none;fillColor=#7AA116;strokeColor=none;dashed=0;verticalLabelPosition=bottom;verticalAlign=top;align=center;html=1;fontSize=12;fontStyle=0;aspect=fixed;pointerEvents=1;shape=mxgraph.aws4.bucket_with_objects;" vertex="1" parent="OwloqUtJ-1rdB4F-nMjI-1">
          <mxGeometry x="420" y="404" width="75" height="78" as="geometry" />
        </mxCell>
        <mxCell id="OwloqUtJ-1rdB4F-nMjI-9" value="" style="sketch=0;points=[[0,0,0],[0.25,0,0],[0.5,0,0],[0.75,0,0],[1,0,0],[0,1,0],[0.25,1,0],[0.5,1,0],[0.75,1,0],[1,1,0],[0,0.25,0],[0,0.5,0],[0,0.75,0],[1,0.25,0],[1,0.5,0],[1,0.75,0]];outlineConnect=0;fontColor=#232F3E;fillColor=light-dark(#8000ff, #ff81d9);strokeColor=#ffffff;dashed=0;verticalLabelPosition=bottom;verticalAlign=top;align=center;html=1;fontSize=12;fontStyle=0;aspect=fixed;shape=mxgraph.aws4.resourceIcon;resIcon=mxgraph.aws4.api_gateway;" vertex="1" parent="OwloqUtJ-1rdB4F-nMjI-1">
          <mxGeometry x="584" y="405" width="78" height="78" as="geometry" />
        </mxCell>
        <mxCell id="OwloqUtJ-1rdB4F-nMjI-12" value="" style="sketch=0;outlineConnect=0;fontColor=#232F3E;gradientColor=none;fillColor=#DD344C;strokeColor=none;dashed=0;verticalLabelPosition=bottom;verticalAlign=top;align=center;html=1;fontSize=12;fontStyle=0;aspect=fixed;pointerEvents=1;shape=mxgraph.aws4.role;" vertex="1" parent="OwloqUtJ-1rdB4F-nMjI-1">
          <mxGeometry x="829" y="602" width="78" height="44" as="geometry" />
        </mxCell>
        <mxCell id="OwloqUtJ-1rdB4F-nMjI-13" value="" style="sketch=0;points=[[0,0,0],[0.25,0,0],[0.5,0,0],[0.75,0,0],[1,0,0],[0,1,0],[0.25,1,0],[0.5,1,0],[0.75,1,0],[1,1,0],[0,0.25,0],[0,0.5,0],[0,0.75,0],[1,0.25,0],[1,0.5,0],[1,0.75,0]];outlineConnect=0;fontColor=#232F3E;fillColor=#ED7100;strokeColor=#ffffff;dashed=0;verticalLabelPosition=bottom;verticalAlign=top;align=center;html=1;fontSize=12;fontStyle=0;aspect=fixed;shape=mxgraph.aws4.resourceIcon;resIcon=mxgraph.aws4.lambda;" vertex="1" parent="OwloqUtJ-1rdB4F-nMjI-1">
          <mxGeometry x="680" y="594" width="78" height="78" as="geometry" />
        </mxCell>
        <mxCell id="OwloqUtJ-1rdB4F-nMjI-14" value="" style="sketch=0;points=[[0,0,0],[0.25,0,0],[0.5,0,0],[0.75,0,0],[1,0,0],[0,1,0],[0.25,1,0],[0.5,1,0],[0.75,1,0],[1,1,0],[0,0.25,0],[0,0.5,0],[0,0.75,0],[1,0.25,0],[1,0.5,0],[1,0.75,0]];outlineConnect=0;fontColor=#232F3E;fillColor=light-dark(#0000ff, #ff7cff);strokeColor=#ffffff;dashed=0;verticalLabelPosition=bottom;verticalAlign=top;align=center;html=1;fontSize=12;fontStyle=0;aspect=fixed;shape=mxgraph.aws4.resourceIcon;resIcon=mxgraph.aws4.dynamodb;" vertex="1" parent="OwloqUtJ-1rdB4F-nMjI-1">
          <mxGeometry x="112" y="594" width="78" height="78" as="geometry" />
        </mxCell>
        <mxCell id="OwloqUtJ-1rdB4F-nMjI-15" value="" style="endArrow=classic;html=1;rounded=0;exitX=0.933;exitY=0.513;exitDx=0;exitDy=0;exitPerimeter=0;" edge="1" parent="OwloqUtJ-1rdB4F-nMjI-1" source="OwloqUtJ-1rdB4F-nMjI-6" target="OwloqUtJ-1rdB4F-nMjI-9">
          <mxGeometry width="50" height="50" relative="1" as="geometry">
            <mxPoint x="481.0017274384679" y="496.54021722213565" as="sourcePoint" />
            <mxPoint x="584" y="490" as="targetPoint" />
            <Array as="points" />
          </mxGeometry>
        </mxCell>
        <mxCell id="OwloqUtJ-1rdB4F-nMjI-19" value="" style="edgeStyle=elbowEdgeStyle;elbow=horizontal;endArrow=classic;html=1;curved=0;rounded=0;endSize=8;startSize=8;exitX=1;exitY=0.5;exitDx=0;exitDy=0;exitPerimeter=0;" edge="1" parent="OwloqUtJ-1rdB4F-nMjI-1" source="OwloqUtJ-1rdB4F-nMjI-9" target="OwloqUtJ-1rdB4F-nMjI-13">
          <mxGeometry width="50" height="50" relative="1" as="geometry">
            <mxPoint x="849" y="442" as="sourcePoint" />
            <mxPoint x="940" y="270" as="targetPoint" />
            <Array as="points">
              <mxPoint x="730" y="520" />
              <mxPoint x="1000" y="360" />
            </Array>
          </mxGeometry>
        </mxCell>
        <mxCell id="OwloqUtJ-1rdB4F-nMjI-22" value="AWS Cognito" style="text;html=1;align=center;verticalAlign=middle;whiteSpace=wrap;rounded=0;" vertex="1" parent="OwloqUtJ-1rdB4F-nMjI-1">
          <mxGeometry x="249" y="482" width="60" height="30" as="geometry" />
        </mxCell>
        <mxCell id="OwloqUtJ-1rdB4F-nMjI-23" value="S3 Bucket Hosting Static Website" style="text;html=1;align=center;verticalAlign=middle;whiteSpace=wrap;rounded=0;" vertex="1" parent="OwloqUtJ-1rdB4F-nMjI-1">
          <mxGeometry x="427.5" y="500" width="60" height="30" as="geometry" />
        </mxCell>
        <mxCell id="OwloqUtJ-1rdB4F-nMjI-24" value="API Gateway" style="text;html=1;align=center;verticalAlign=middle;whiteSpace=wrap;rounded=0;" vertex="1" parent="OwloqUtJ-1rdB4F-nMjI-1">
          <mxGeometry x="593" y="483" width="60" height="30" as="geometry" />
        </mxCell>
        <mxCell id="OwloqUtJ-1rdB4F-nMjI-26" value="Lambda" style="text;html=1;align=center;verticalAlign=middle;whiteSpace=wrap;rounded=0;" vertex="1" parent="OwloqUtJ-1rdB4F-nMjI-1">
          <mxGeometry x="719" y="680" width="60" height="30" as="geometry" />
        </mxCell>
        <mxCell id="OwloqUtJ-1rdB4F-nMjI-27" value="DynamoDB" style="text;html=1;align=center;verticalAlign=middle;whiteSpace=wrap;rounded=0;" vertex="1" parent="OwloqUtJ-1rdB4F-nMjI-1">
          <mxGeometry x="121" y="672" width="60" height="30" as="geometry" />
        </mxCell>
        <mxCell id="OwloqUtJ-1rdB4F-nMjI-28" value="IAM Role" style="text;html=1;align=center;verticalAlign=middle;whiteSpace=wrap;rounded=0;" vertex="1" parent="OwloqUtJ-1rdB4F-nMjI-1">
          <mxGeometry x="838" y="660" width="60" height="30" as="geometry" />
        </mxCell>
        <mxCell id="OwloqUtJ-1rdB4F-nMjI-29" value="" style="sketch=0;verticalLabelPosition=bottom;sketch=0;aspect=fixed;html=1;verticalAlign=top;strokeColor=none;fillColor=#000000;align=center;outlineConnect=0;pointerEvents=1;shape=mxgraph.citrix2.citrix_enterprise_browser;" vertex="1" parent="OwloqUtJ-1rdB4F-nMjI-1">
          <mxGeometry x="50" y="423.52" width="50" height="42.955" as="geometry" />
        </mxCell>
        <mxCell id="OwloqUtJ-1rdB4F-nMjI-30" value="Browser" style="text;html=1;align=center;verticalAlign=middle;whiteSpace=wrap;rounded=0;" vertex="1" parent="OwloqUtJ-1rdB4F-nMjI-1">
          <mxGeometry x="45" y="470" width="60" height="30" as="geometry" />
        </mxCell>
        <mxCell id="OwloqUtJ-1rdB4F-nMjI-4" value="" style="verticalLabelPosition=bottom;html=1;verticalAlign=top;align=center;strokeColor=none;fillColor=#00BEF2;shape=mxgraph.azure.user;" vertex="1" parent="OwloqUtJ-1rdB4F-nMjI-1">
          <mxGeometry x="33.75" y="530" width="47.5" height="50" as="geometry" />
        </mxCell>
        <mxCell id="OwloqUtJ-1rdB4F-nMjI-33" value="" style="endArrow=classic;html=1;rounded=0;exitX=0.928;exitY=0.87;exitDx=0;exitDy=0;exitPerimeter=0;" edge="1" parent="OwloqUtJ-1rdB4F-nMjI-1" source="OwloqUtJ-1rdB4F-nMjI-4" target="OwloqUtJ-1rdB4F-nMjI-29">
          <mxGeometry width="50" height="50" relative="1" as="geometry">
            <mxPoint x="-280" y="341" as="sourcePoint" />
            <mxPoint x="-210" y="310" as="targetPoint" />
          </mxGeometry>
        </mxCell>
        <mxCell id="OwloqUtJ-1rdB4F-nMjI-21" value="User" style="text;html=1;align=center;verticalAlign=middle;whiteSpace=wrap;rounded=0;" vertex="1" parent="OwloqUtJ-1rdB4F-nMjI-1">
          <mxGeometry x="27.5" y="594" width="60" height="26" as="geometry" />
        </mxCell>
        <mxCell id="OlG0k2G60RBSmVKNrlHs-7" value="" style="endArrow=classic;html=1;rounded=0;" edge="1" parent="OwloqUtJ-1rdB4F-nMjI-1" source="OwloqUtJ-1rdB4F-nMjI-12" target="OwloqUtJ-1rdB4F-nMjI-13">
          <mxGeometry width="50" height="50" relative="1" as="geometry">
            <mxPoint x="470" y="620" as="sourcePoint" />
            <mxPoint x="520" y="570" as="targetPoint" />
          </mxGeometry>
        </mxCell>
        <mxCell id="OlG0k2G60RBSmVKNrlHs-8" value="Amazon&lt;br&gt;CloudWatch&lt;br&gt;" style="outlineConnect=0;fontColor=#232F3E;gradientColor=#F34482;gradientDirection=north;fillColor=#BC1356;strokeColor=#ffffff;dashed=0;verticalLabelPosition=bottom;verticalAlign=top;align=center;html=1;fontSize=12;fontStyle=0;aspect=fixed;shape=mxgraph.aws4.resourceIcon;resIcon=mxgraph.aws4.cloudwatch;labelBackgroundColor=#ffffff;" vertex="1" parent="OwloqUtJ-1rdB4F-nMjI-1">
          <mxGeometry x="410" y="660" width="74" height="74" as="geometry" />
        </mxCell>
        <mxCell id="OlG0k2G60RBSmVKNrlHs-9" value="" style="endArrow=classic;html=1;rounded=0;exitX=0.5;exitY=1;exitDx=0;exitDy=0;exitPerimeter=0;" edge="1" parent="OwloqUtJ-1rdB4F-nMjI-1" source="OwloqUtJ-1rdB4F-nMjI-13" target="OlG0k2G60RBSmVKNrlHs-8">
          <mxGeometry width="50" height="50" relative="1" as="geometry">
            <mxPoint x="470" y="620" as="sourcePoint" />
            <mxPoint x="520" y="570" as="targetPoint" />
          </mxGeometry>
        </mxCell>
        <mxCell id="OlG0k2G60RBSmVKNrlHs-11" value="" style="endArrow=classic;html=1;rounded=0;exitX=0;exitY=0.5;exitDx=0;exitDy=0;exitPerimeter=0;entryX=1;entryY=0.5;entryDx=0;entryDy=0;entryPerimeter=0;" edge="1" parent="OwloqUtJ-1rdB4F-nMjI-1" source="OwloqUtJ-1rdB4F-nMjI-13" target="OwloqUtJ-1rdB4F-nMjI-14">
          <mxGeometry width="50" height="50" relative="1" as="geometry">
            <mxPoint x="470" y="620" as="sourcePoint" />
            <mxPoint x="520" y="570" as="targetPoint" />
          </mxGeometry>
        </mxCell>
      </root>
    </mxGraphModel>
  </diagram>
</mxfile>
